<svg width="16" height="16" viewBox="0 0 16 16" fill="none" xmlns="http://www.w3.org/2000/svg">
<rect width="16" height="16" rx="8" fill="#1E1E1E"/>
<path d="M7.98016 7.3849L6.84993 5.87256L5.93977 4.20624V1.89924L7.97154 1L10.0211 1.89867V4.20394L9.08798 5.90761L7.98016 7.3849ZM7.46819 5.28763L7.98016 5.97082L8.4927 5.28763L9.16785 4.04995V2.60312L7.97384 2.07966L6.79305 2.60254V4.04995L7.46819 5.28763Z" fill="white"/>
<path d="M8.52258 7.67794L9.26955 5.94381L10.2619 4.32346L12.2597 3.17427L14.0525 4.48722L14.295 6.71205L12.2965 7.86124L10.3544 7.90203L8.52258 7.67794ZM10.0832 6.18859L9.74819 6.97579L10.5957 7.07921L12.0058 7.04761L13.2595 6.32649L13.1182 5.03021L12.0764 4.26427L10.8215 4.98596L10.0832 6.18859Z" fill="white"/>
<path d="M8.53866 8.29391L10.4141 8.07728L12.3143 8.13015L14.3059 9.2891L14.0617 11.4973L12.254 12.8188L10.2613 11.6576L9.25806 9.99413L8.53866 8.29391ZM10.6072 8.90585L9.7591 9.00525L10.0935 9.7913L10.8238 10.9979L12.0741 11.7254L13.1285 10.9566L13.2705 9.67293L12.0196 8.94492L10.6072 8.90585Z" fill="white"/>
<path d="M8.01463 8.6151L9.13567 10.1361L10.0372 11.8093L10.0257 14.1111L7.98935 15L5.94609 14.091L5.95816 11.7851L6.89992 10.0861L8.01463 8.6151ZM8.51568 10.7147L8.00716 10.0292L7.49003 10.7095L6.80798 11.9437L6.80052 13.3906L7.99165 13.9203L9.17589 13.4032L9.18336 11.9564L8.51568 10.7147Z" fill="white"/>
<path d="M7.47222 8.31919L6.71605 10.0493L5.71625 11.6651L3.71092 12.8033L1.92393 11.4818L1.69409 9.25578L3.69828 8.11693L5.64098 8.0859L7.47222 8.31919ZM5.90185 9.80049L6.24258 9.01789L5.39621 8.90987L3.98558 8.93458L2.72836 9.64937L2.86339 10.9457L3.90168 11.7145L5.15947 10.9979L5.90185 9.80049Z" fill="white"/>
<path d="M7.459 7.70322L5.58237 7.91008L3.68276 7.84745L1.69696 6.67815L1.95266 4.47113L3.76665 3.16105L5.7536 4.33265L6.75053 5.99897L7.459 7.70322ZM5.39046 7.08036L6.23914 6.98555L5.91219 6.19778L5.18763 4.98769L3.94076 4.25336L2.88408 5.01699L2.73526 6.30006L3.9827 7.03324L5.39046 7.08036Z" fill="white"/>
</svg>
